<svg xmlns="http://www.w3.org/2000/svg" width="18.004" height="18" viewBox="0 0 18.004 18"><defs><style>.a{fill:none;stroke:#fff;stroke-linecap:round;stroke-linejoin:round;stroke-width:2px;}</style></defs><path class="a" d="M12.072,12.4v3.2A2.42,2.42,0,0,1,9.633,18L6.382,10.8V2h9.169a1.618,1.618,0,0,1,1.626,1.36l1.122,7.2a1.583,1.583,0,0,1-.381,1.29,1.637,1.637,0,0,1-1.245.55ZM6.382,2H4.211A1.869,1.869,0,0,0,2.317,3.6V9.2a1.869,1.869,0,0,0,1.894,1.6h2.17" transform="translate(-1.317 -0.999)"/></svg>